<svg xmlns="http://www.w3.org/2000/svg" data-name="Layer 1" viewBox="0 0 100 125">
  <path d="M93.5 56.34A8.4 8.4 0 0 1 91.07 63l-23 23a17.59 17.59 0 0 1-12.48 5.1h-28.4L20 98.27a2.5 2.5 0 0 1-3.54-3.54l7.9-7.9a2.5 2.5 0 0 1 1.77-.73h29.46a12.62 12.62 0 0 0 9-3.72l23-23a3.41 3.41 0 0 0-4.82-4.82L64.62 72.9l-.06.05a8.39 8.39 0 0 1-5.87 2.43H41.14a2.5 2.5 0 0 1 0-5H58.7a3.4 3.4 0 0 0 3.3-2.65 3.38 3.38 0 0 0-3.3-4.11H28.41a10.5 10.5 0 0 0-7.47 3.09l-4.42 4.41A2.5 2.5 0 1 1 13 67.59l4.42-4.41a15.46 15.46 0 0 1 11-4.56H58.7a8.32 8.32 0 0 1 7.73 5.18l12.74-12.74a8.41 8.41 0 0 1 14.33 5.28zm-20-33a6.1 6.1 0 0 0-3.42-3.44l-6.43-2.54-1.24-6.8a6.08 6.08 0 0 0-7.5-4.8L48.2 7.45l-5-4.77a6.08 6.08 0 0 0-8.88.52l-4.4 5.33-6.85-.92a6.08 6.08 0 0 0-6.88 5.65l-.43 6.9-6.1 3.28A6.08 6.08 0 0 0 7.42 32l3.71 5.84-3 6.23a6.08 6.08 0 0 0 3.25 8.29l7.72 3.05a2.5 2.5 0 1 0 1.84-4.65l-7.72-3.05a1.08 1.08 0 0 1-.58-1.47l3.59-7.48a2.5 2.5 0 0 0-.14-2.42l-4.45-7a1.08 1.08 0 0 1 .4-1.53l7.31-3.94a2.5 2.5 0 0 0 1.31-2l.52-8.28a1.07 1.07 0 0 1 .39-.77 1.05 1.05 0 0 1 .83-.24l8.23 1.11a2.48 2.48 0 0 0 2.26-.88l5.29-6.4a1.08 1.08 0 0 1 1.58-.09l6 5.73a2.49 2.49 0 0 0 2.35.61l8-2.07a1.08 1.08 0 0 1 1.33.85L59 19.59a2.5 2.5 0 0 0 1.54 1.88l7.72 3.05a1.08 1.08 0 0 1 .53 1.48l-3.59 7.48a2.5 2.5 0 0 0 .14 2.42l4.45 7a1.08 1.08 0 0 1-.4 1.53l-7.31 3.94a2.5 2.5 0 1 0 2.37 4.4l7.31-3.94a6.08 6.08 0 0 0 2.24-8.6l-3.71-5.84 3-6.23a6.1 6.1 0 0 0 .19-4.85zm-32.8 25a4.53 4.53 0 0 1-4.19-2.79 2.5 2.5 0 1 0-4.61 1.94 9.52 9.52 0 0 0 8.8 5.85c5.44 0 9.54-3.85 9.54-9 0-2.54-1.16-7.07-8.89-8.87h-.08c-5.1-1.16-5.1-3.31-5.1-4 0-2.71 2.35-4 4.54-4a4.53 4.53 0 0 1 4.19 2.78 2.5 2.5 0 1 0 4.61-1.93 9.5 9.5 0 0 0-6.3-5.5v-1.76a2.5 2.5 0 0 0-5 0v1.79a8.82 8.82 0 0 0-7 8.65c0 2.54 1.16 7.07 8.89 8.87h.08c5.1 1.17 5.1 3.31 5.1 4-.06 2.75-2.41 3.98-4.6 3.98z"/>
</svg>
