<?xml version="1.0" encoding="utf-8"?>
<svg version="1.1" id="Layer_1" xmlns="http://www.w3.org/2000/svg" xmlns:xlink="http://www.w3.org/1999/xlink" x="0px" y="0px"
	 viewBox="0 0 100 100" style="enable-background:new 0 0 100 100;" xml:space="preserve">
<path d="M93.5,56.3c0.2,2.5-0.7,4.9-2.4,6.7l-23,23c-3.3,3.3-7.8,5.1-12.5,5.1H27.2L20,98.3c-1,1-2.6,1-3.5,0s-1-2.6,0-3.5l7.9-7.9
	c0.5-0.5,1.1-0.7,1.8-0.7h29.5c3.4,0,6.6-1.3,9-3.7l23-23c1.3-1.4,1.2-3.5-0.2-4.8c-1.3-1.2-3.4-1.2-4.7,0L64.6,72.9l-0.1,0.1
	c-1.6,1.5-3.7,2.4-5.9,2.4H41.1c-1.4,0-2.5-1.1-2.5-2.5s1.1-2.5,2.5-2.5h17.6c1.6,0,3-1.1,3.3-2.7c0.4-1.8-0.7-3.6-2.6-4
	c-0.2-0.1-0.5-0.1-0.7-0.1H28.4c-2.8,0-5.5,1.1-7.5,3.1l-4.4,4.4c-0.9,1-2.5,1.2-3.5,0.3s-1.2-2.5-0.3-3.5c0.1-0.1,0.2-0.2,0.3-0.3
	l4.4-4.4c2.9-2.9,6.9-4.6,11-4.6h30.3c3.4,0,6.4,2,7.7,5.2l12.7-12.7c3.3-3.3,8.6-3.3,11.9,0C92.5,52.5,93.3,54.3,93.5,56.3z
	 M73.5,23.3c-0.6-1.6-1.9-2.8-3.4-3.4l-6.4-2.5l-1.2-6.8c-0.6-3.3-3.8-5.5-7.1-4.9c-0.1,0-0.3,0.1-0.4,0.1l-6.7,1.7l-5-4.8
	c-2.4-2.3-6.3-2.2-8.6,0.2c-0.1,0.1-0.2,0.2-0.3,0.3l-4.4,5.3l-6.9-0.9c-3.3-0.4-6.4,1.9-6.8,5.2c0,0.1,0,0.3,0,0.4l-0.4,6.9
	l-6.1,3.3c-2.9,1.6-4,5.3-2.4,8.3c0.1,0.1,0.1,0.2,0.2,0.3l3.7,5.8l-3,6.2c-1.5,3-0.2,6.7,2.8,8.1c0.1,0.1,0.3,0.1,0.4,0.2l7.7,3
	c1.3,0.5,2.7-0.1,3.2-1.4c0.5-1.3-0.1-2.7-1.4-3.2l0,0l-7.7-3c-0.6-0.2-0.8-0.8-0.6-1.4c0,0,0,0,0-0.1l3.6-7.5
	c0.4-0.8,0.3-1.7-0.1-2.4l-4.4-7c-0.3-0.5-0.2-1.2,0.3-1.5c0,0,0,0,0.1,0l7.3-3.9c0.7-0.4,1.2-1.2,1.3-2l0.5-8.3
	c0-0.3,0.2-0.6,0.4-0.8c0.2-0.2,0.5-0.3,0.8-0.2l8.2,1.1c0.9,0.1,1.7-0.2,2.3-0.9l5.3-6.4c0.4-0.5,1.1-0.5,1.5-0.1c0,0,0,0,0.1,0.1
	l6,5.7c0.6,0.6,1.5,0.8,2.3,0.6l8-2.1c0.6-0.1,1.2,0.2,1.3,0.8c0,0,0,0,0,0.1l1.6,8.2c0.2,0.9,0.7,1.6,1.5,1.9l7.7,3
	c0.5,0.2,0.8,0.9,0.6,1.4c0,0,0,0,0,0.1l-3.6,7.5c-0.4,0.8-0.3,1.7,0.1,2.4l4.4,7c0.3,0.5,0.2,1.2-0.3,1.5c0,0,0,0-0.1,0l-7.3,3.9
	c-1.2,0.6-1.7,2.1-1.1,3.4c0.6,1.2,2.1,1.7,3.4,1.1c0,0,0.1,0,0.1-0.1l7.3-3.9c3-1.6,4-5.3,2.5-8.2c-0.1-0.1-0.1-0.2-0.2-0.4
	l-3.7-5.8l3-6.2C74,26.6,74.1,24.9,73.5,23.3L73.5,23.3z M40.7,48.3c-1.8,0-3.5-1.1-4.2-2.8c-0.5-1.3-2-1.9-3.3-1.3
	c-1.3,0.5-1.9,2-1.3,3.3c1.5,3.5,5,5.9,8.8,5.8c5.4,0,9.5-3.8,9.5-9c0-2.5-1.2-7.1-8.9-8.9h-0.1c-5.1-1.2-5.1-3.3-5.1-4
	c0-2.7,2.3-4,4.5-4c1.8,0,3.5,1.1,4.2,2.8c0.5,1.3,1.9,1.9,3.2,1.4c1.3-0.5,1.9-1.9,1.4-3.2c0,0,0-0.1-0.1-0.1
	c-1.1-2.7-3.5-4.7-6.3-5.5v-1.8c0-1.4-1.1-2.5-2.5-2.5s-2.5,1.1-2.5,2.5v1.8c-4.1,0.9-7,4.5-7,8.6c0,2.5,1.2,7.1,8.9,8.9h0.1
	c5.1,1.2,5.1,3.3,5.1,4C45.2,47.1,42.9,48.3,40.7,48.3L40.7,48.3z"/>
</svg>
